# xmcd
#
# Track frame offsets:
#	150
#	18533
#	34428
#	51961
#	66848
#	88185
#	117215
#	135438
#	167514
#	187661
#	214641
#	231012
#	248063
#
# Disc length: 3439 seconds
#
# Revision: 1
# Processed by: cddbd v1.5.1PL0 Copyright (c) Steve Scherf et al.
# Submitted via: audiograbber 1.83.01
#
DISCID=aa0d6d0d
DTITLE=Lightnin' Hopkins - Munich - 6-23-77
DYEAR=1977
DGENRE=Blues
TTITLE0=Trouble in Mind
TTITLE1=Ain't it Crazy
TTITLE2=Cook My Breakfast
TTITLE3=It's Hard to Love a Woman
TTITLE4=Unknown
TTITLE5=Katie Mae
TTITLE6=Mojo Hand
TTITLE7=My Mother was Sanctified
TTITLE8=Unknown
TTITLE9=I'm Coming Back Home
TTITLE10=Early in the Morning
TTITLE11=My Babe
TTITLE12=Rock Me
EXTD=
EXTT0=
EXTT1=
EXTT2=
EXTT3=
EXTT4=
EXTT5=
EXTT6=
EXTT7=
EXTT8=
EXTT9=
EXTT10=
EXTT11=
EXTT12=
PLAYORDER=
